<?xml version="1.0" encoding="UTF-8" standalone="no"?>
<!DOCTYPE svg PUBLIC "-//W3C//DTD SVG 1.1//EN" "http://www.w3.org/Graphics/SVG/1.1/DTD/svg11.dtd">
<svg width="100%" height="100%" viewBox="0 0 16 16" version="1.1" xmlns="http://www.w3.org/2000/svg" xmlns:xlink="http://www.w3.org/1999/xlink" xml:space="preserve" xmlns:serif="http://www.serif.com/" style="fill-rule:evenodd;clip-rule:evenodd;stroke-linejoin:round;stroke-miterlimit:2;">
    <g transform="matrix(1,0,0,1,-0.0774795,0.149169)">
        <rect x="3.395" y="2.912" width="9.719" height="9.877"/>
    </g>
    <path d="M16,8C16,12.389 12.389,16 8,16C3.611,16 0,12.389 0,8C-0,3.611 3.611,0 8,0C12.389,-0 16,3.611 16,8M8.5,4.5C8.5,4.226 8.274,4 8,4C7.726,4 7.5,4.226 7.5,4.5L7.5,10.293L5.354,8.146C5.26,8.052 5.133,7.999 5,7.999C4.725,7.999 4.499,8.225 4.499,8.5C4.499,8.633 4.552,8.76 4.646,8.854L7.646,11.854C7.74,11.948 7.867,12.001 8,12.001C8.133,12.001 8.26,11.948 8.354,11.854L11.354,8.854C11.448,8.76 11.501,8.633 11.501,8.5C11.501,8.225 11.275,7.999 11,7.999C10.867,7.999 10.74,8.052 10.646,8.146L8.5,10.293L8.5,4.5Z" style="fill-rule:nonzero;"/>
    <clipPath id="_clip1">
        <path d="M16,8C16,12.389 12.389,16 8,16C3.611,16 0,12.389 0,8C-0,3.611 3.611,0 8,0C12.389,-0 16,3.611 16,8M8.5,4.5C8.5,4.226 8.274,4 8,4C7.726,4 7.5,4.226 7.5,4.5L7.5,10.293L5.354,8.146C5.26,8.052 5.133,7.999 5,7.999C4.725,7.999 4.499,8.225 4.499,8.5C4.499,8.633 4.552,8.76 4.646,8.854L7.646,11.854C7.74,11.948 7.867,12.001 8,12.001C8.133,12.001 8.26,11.948 8.354,11.854L11.354,8.854C11.448,8.76 11.501,8.633 11.501,8.5C11.501,8.225 11.275,7.999 11,7.999C10.867,7.999 10.74,8.052 10.646,8.146L8.5,10.293L8.5,4.5Z" clip-rule="nonzero"/>
    </clipPath>
    <g clip-path="url(#_clip1)">
        <g>
            <g transform="matrix(5.4729,0,0,0.788903,-24.6703,-3.42043)">
                <rect x="4.508" y="4.336" width="2.923" height="2.897" style="fill:rgb(178,24,42);"/>
            </g>
            <g transform="matrix(5.47459,0,0,0.788903,-24.6779,-1.13472)">
                <rect x="4.508" y="4.336" width="2.923" height="2.897" style="fill:rgb(239,137,99);"/>
            </g>
            <g transform="matrix(5.47459,0,0,0.788903,-24.6828,1.15099)">
                <rect x="4.508" y="4.336" width="2.923" height="2.897" style="fill:rgb(253,219,199);"/>
            </g>
            <g transform="matrix(5.47459,0,0,0.788903,-24.6828,3.43671)">
                <rect x="4.508" y="4.336" width="2.923" height="2.897" style="fill:rgb(247,247,247);"/>
            </g>
            <g transform="matrix(5.47459,0,0,0.788903,-24.6779,5.72242)">
                <rect x="4.508" y="4.336" width="2.923" height="2.897" style="fill:rgb(209,229,240);"/>
            </g>
            <g transform="matrix(5.47459,0,0,0.788903,-24.6828,8.00814)">
                <rect x="4.508" y="4.336" width="2.923" height="2.897" style="fill:rgb(103,169,207);"/>
            </g>
            <g transform="matrix(5.47459,0,0,0.788903,-24.6828,10.2939)">
                <rect x="4.508" y="4.336" width="2.923" height="2.897" style="fill:rgb(34,102,172);"/>
            </g>
        </g>
    </g>
</svg>
